<svg width="1180" height="980" viewBox="0 0 1180 980" xmlns="http://www.w3.org/2000/svg">
  <title>Volodymyr (kun3741) — GitHub profile header (dark)</title>

  <defs>
    <linearGradient id="accentGrad" x1="0%" y1="0%" x2="100%" y2="100%">
      <stop offset="0%" stop-color="#2563EB">
        <animate attributeName="stop-color" values="#2563EB;#06B6D4;#10B981;#2563EB" dur="8s" repeatCount="indefinite"/>
      </stop>
      <stop offset="50%" stop-color="#06B6D4">
        <animate attributeName="stop-color" values="#06B6D4;#10B981;#2563EB;#06B6D4" dur="8s" repeatCount="indefinite"/>
      </stop>
      <stop offset="100%" stop-color="#10B981">
        <animate attributeName="stop-color" values="#10B981;#2563EB;#06B6D4;#10B981" dur="8s" repeatCount="indefinite"/>
      </stop>
    </linearGradient>

    <linearGradient id="asciiGrad" x1="0%" y1="0%" x2="100%" y2="100%">
      <stop offset="0%" stop-color="#06B6D4"/>
      <stop offset="100%" stop-color="#2563EB"/>
      <animateTransform attributeName="gradientTransform" type="rotate" from="0 0.5 0.5" to="360 0.5 0.5" dur="10s" repeatCount="indefinite"/>
    </linearGradient>

    <radialGradient id="glowBlue" cx="50%" cy="50%" r="50%">
      <stop offset="0%" stop-color="#60A5FA" stop-opacity="0.18"/>
      <stop offset="100%" stop-color="#60A5FA" stop-opacity="0"/>
    </radialGradient>
    <radialGradient id="glowPurple" cx="50%" cy="50%" r="50%">
      <stop offset="0%" stop-color="#93C5FD" stop-opacity="0.15"/>
      <stop offset="100%" stop-color="#93C5FD" stop-opacity="0"/>
    </radialGradient>
    <radialGradient id="glowEmerald" cx="50%" cy="50%" r="50%">
      <stop offset="0%" stop-color="#6EE7B7" stop-opacity="0.13"/>
      <stop offset="100%" stop-color="#6EE7B7" stop-opacity="0"/>
    </radialGradient>

    <linearGradient id="borderShimmer" x1="0%" y1="0%" x2="100%" y2="0%">
      <stop offset="0%" stop-color="#2563EB" stop-opacity="0"/>
      <stop offset="50%" stop-color="#06B6D4" stop-opacity="0.9"/>
      <stop offset="100%" stop-color="#10B981" stop-opacity="0"/>
      <animateTransform attributeName="gradientTransform" type="translate" from="-1 0" to="1 0" dur="4s" repeatCount="indefinite"/>
    </linearGradient>

    <filter id="softGlow" x="-60%" y="-60%" width="220%" height="220%">
      <feGaussianBlur stdDeviation="3.2" result="blur"/>
      <feMerge><feMergeNode in="blur"/><feMergeNode in="SourceGraphic"/></feMerge>
    </filter>
    <filter id="bigBlur" x="-50%" y="-50%" width="200%" height="200%">
      <feGaussianBlur stdDeviation="40"/>
    </filter>
    <filter id="noise">
      <feTurbulence type="fractalNoise" baseFrequency="0.85" numOctaves="2" stitchTiles="stitch" result="noise"/>
      <feColorMatrix in="noise" type="matrix" values="0 0 0 0 1  0 0 0 0 1  0 0 0 0 1  0 0 0 0.035 0"/>
    </filter>

    <clipPath id="cardClip"><rect x="16" y="16" width="1148" height="948" rx="28"/></clipPath>
    <clipPath id="leftClip"><rect x="44" y="44" width="420" height="522" rx="18"/></clipPath>
  </defs>


  <rect x="0" y="0" width="1180" height="980" fill="#030712"/>
  <g clip-path="url(#cardClip)">
    <rect x="16" y="16" width="1148" height="948" fill="#030712"/>
    <circle cx="180" cy="140" r="240" fill="url(#glowPurple)" filter="url(#bigBlur)">
      <animateTransform attributeName="transform" type="translate" values="0 0; 30 20; 0 0" dur="9s" repeatCount="indefinite"/>
    </circle>
    <circle cx="1020" cy="820" r="280" fill="url(#glowBlue)" filter="url(#bigBlur)">
      <animateTransform attributeName="transform" type="translate" values="0 0; -25 -15; 0 0" dur="11s" repeatCount="indefinite"/>
    </circle>
    <circle cx="880" cy="120" r="200" fill="url(#glowEmerald)" filter="url(#bigBlur)">
      <animateTransform attributeName="transform" type="translate" values="0 0; -15 25; 0 0" dur="7s" repeatCount="indefinite"/>
    </circle>
    <rect x="16" y="16" width="1148" height="948" filter="url(#noise)"/>
  </g>


  <rect x="16" y="16" width="1148" height="948" rx="28" fill="none" stroke-width="1" stroke="#1E293B"/>
  <rect x="16" y="16" width="1148" height="948" rx="28" fill="none" stroke="url(#borderShimmer)" stroke-width="1.4"/>


  <g>
    <rect x="40" y="40" width="470" height="860" rx="20" fill="#0B1220" fill-opacity="0.6" stroke="#1E293B" stroke-width="1"/>

    <text x="64" y="87" font-family="'JetBrains Mono','Courier New',monospace" font-size="15" font-weight="700" fill="#22D3EE">$ <tspan fill="#F8FAFC">whoami</tspan></text>
    
      <rect x="390" y="70" width="96" height="26" rx="13" fill="#052E1F" stroke="#059669" stroke-width="1"/>
      <circle cx="406" cy="83" r="3.4" fill="#34D399">
        <animate attributeName="opacity" values="1;0.3;1" dur="1.6s" repeatCount="indefinite"/>
      </circle>
      <text x="444" y="87" text-anchor="middle" font-family="'JetBrains Mono','Courier New',monospace" font-size="11" font-weight="700" fill="#34D399">ONLINE</text>

    <line x1="64" y1="98" x2="486" y2="98" stroke="#1E293B" stroke-width="1"/>

    <g transform="translate(37.81,160.45) scale(0.5952)">
    <g clip-path="url(#leftClip)">
      <g font-family="'JetBrains Mono','Courier New',monospace" font-size="8.8" font-weight="600" text-anchor="middle" letter-spacing="-0.2">
        <animateTransform attributeName="transform" type="translate" values="0 0; 0 -6; 0 0" dur="6s" repeatCount="indefinite"/>
        <text x="254.0" y="152.0" fill="url(#asciiGrad)" filter="url(#softGlow)" opacity="0">
          <tspan xml:space="preserve">                                                                      </tspan>
          <animate attributeName="opacity" values="0;0;1" keyTimes="0;0.001;1" dur="0.001s" begin="0.0s" fill="freeze"/>
        </text>
        <text x="254.0" y="162.1" fill="url(#asciiGrad)" filter="url(#softGlow)" opacity="0">
          <tspan xml:space="preserve">                          .:--..:-=-. ..::::.                        </tspan>
          <animate attributeName="opacity" values="0;0;1" keyTimes="0;0.001;1" dur="0.001s" begin="0.055s" fill="freeze"/>
        </text>
        <text x="254.0" y="172.2" fill="url(#asciiGrad)" filter="url(#softGlow)" opacity="0">
          <tspan xml:space="preserve">                        .-%%%#####%%######%%%-...                    </tspan>
          <animate attributeName="opacity" values="0;0;1" keyTimes="0;0.001;1" dur="0.001s" begin="0.11s" fill="freeze"/>
        </text>
        <text x="254.0" y="182.3" fill="url(#asciiGrad)" filter="url(#softGlow)" opacity="0">
          <tspan xml:space="preserve">                    .+++*%%%%#%%%%%%%%%%%%%%%#*#%-                   </tspan>
          <animate attributeName="opacity" values="0;0;1" keyTimes="0;0.001;1" dur="0.001s" begin="0.165s" fill="freeze"/>
        </text>
        <text x="254.0" y="192.4" fill="url(#asciiGrad)" filter="url(#softGlow)" opacity="0">
          <tspan xml:space="preserve">                   .*%%%%%%%%%%%%%%%#%*#%%%%%%#*#*++=:               </tspan>
          <animate attributeName="opacity" values="0;0;1" keyTimes="0;0.001;1" dur="0.001s" begin="0.22s" fill="freeze"/>
        </text>
        <text x="254.0" y="202.5" fill="url(#asciiGrad)" filter="url(#softGlow)" opacity="0">
          <tspan xml:space="preserve">                .+#%%%%%%%#%%%%%%%%%###%%%%#%%%%%%%#%%:              </tspan>
          <animate attributeName="opacity" values="0;0;1" keyTimes="0;0.001;1" dur="0.001s" begin="0.275s" fill="freeze"/>
        </text>
        <text x="254.0" y="212.6" fill="url(#asciiGrad)" filter="url(#softGlow)" opacity="0">
          <tspan xml:space="preserve">                :#%%%%%%%%%%%%%%#%%##%%%#%%%%##%%%%%%*=.             </tspan>
          <animate attributeName="opacity" values="0;0;1" keyTimes="0;0.001;1" dur="0.001s" begin="0.33s" fill="freeze"/>
        </text>
        <text x="254.0" y="222.7" fill="url(#asciiGrad)" filter="url(#softGlow)" opacity="0">
          <tspan xml:space="preserve">               -*#%%%%%%%%%%@%%@%%%%%%%%#**+**%%###%%##*:            </tspan>
          <animate attributeName="opacity" values="0;0;1" keyTimes="0;0.001;1" dur="0.001s" begin="0.385s" fill="freeze"/>
        </text>
        <text x="254.0" y="232.8" fill="url(#asciiGrad)" filter="url(#softGlow)" opacity="0">
          <tspan xml:space="preserve">              +##%%%%%%%%%%%%%%%%%%%%%%%%%%%%@@%#%%%%%%#:            </tspan>
          <animate attributeName="opacity" values="0;0;1" keyTimes="0;0.001;1" dur="0.001s" begin="0.44s" fill="freeze"/>
        </text>
        <text x="254.0" y="242.89999999999998" fill="url(#asciiGrad)" filter="url(#softGlow)" opacity="0">
          <tspan xml:space="preserve">              =*#%%%%%%%%%%%%%%%%%%%%%%%%%%%%%%%%%%##%%#-            </tspan>
          <animate attributeName="opacity" values="0;0;1" keyTimes="0;0.001;1" dur="0.001s" begin="0.495s" fill="freeze"/>
        </text>
        <text x="254.0" y="253.0" fill="url(#asciiGrad)" filter="url(#softGlow)" opacity="0">
          <tspan xml:space="preserve">              -##%%%%%%%%%%%%%%%%%%%%%@@%%%%%%%%%%%##%%*=            </tspan>
          <animate attributeName="opacity" values="0;0;1" keyTimes="0;0.001;1" dur="0.001s" begin="0.55s" fill="freeze"/>
        </text>
        <text x="254.0" y="263.1" fill="url(#asciiGrad)" filter="url(#softGlow)" opacity="0">
          <tspan xml:space="preserve">              -#%%%%%%*+==-----======+++===++==+*#%%%%#*:            </tspan>
          <animate attributeName="opacity" values="0;0;1" keyTimes="0;0.001;1" dur="0.001s" begin="0.605s" fill="freeze"/>
        </text>
        <text x="254.0" y="273.2" fill="url(#asciiGrad)" filter="url(#softGlow)" opacity="0">
          <tspan xml:space="preserve">               *#%%%%*-:::::::.::::::::...:::::::=%%%%**.            </tspan>
          <animate attributeName="opacity" values="0;0;1" keyTimes="0;0.001;1" dur="0.001s" begin="0.66s" fill="freeze"/>
        </text>
        <text x="254.0" y="283.29999999999995" fill="url(#asciiGrad)" filter="url(#softGlow)" opacity="0">
          <tspan xml:space="preserve">               +#%%%%=--:::::::::::::::::::::::::-#%%%*+             </tspan>
          <animate attributeName="opacity" values="0;0;1" keyTimes="0;0.001;1" dur="0.001s" begin="0.715s" fill="freeze"/>
        </text>
        <text x="254.0" y="293.4" fill="url(#asciiGrad)" filter="url(#softGlow)" opacity="0">
          <tspan xml:space="preserve">               -#%%%#=--::======-:::::-======::::-*%%%#-             </tspan>
          <animate attributeName="opacity" values="0;0;1" keyTimes="0;0.001;1" dur="0.001s" begin="0.77s" fill="freeze"/>
        </text>
        <text x="254.0" y="303.5" fill="url(#asciiGrad)" filter="url(#softGlow)" opacity="0">
          <tspan xml:space="preserve">               :##%%*----+***##**-::::**##***+::::+%%##:             </tspan>
          <animate attributeName="opacity" values="0;0;1" keyTimes="0;0.001;1" dur="0.001s" begin="0.825s" fill="freeze"/>
        </text>
        <text x="254.0" y="313.6" fill="url(#asciiGrad)" filter="url(#softGlow)" opacity="0">
          <tspan xml:space="preserve">                #%==----:-:=#=-*-::::::+--#=::::::-+=#+              </tspan>
          <animate attributeName="opacity" values="0;0;1" keyTimes="0;0.001;1" dur="0.001s" begin="0.88s" fill="freeze"/>
        </text>
        <text x="254.0" y="323.7" fill="url(#asciiGrad)" filter="url(#softGlow)" opacity="0">
          <tspan xml:space="preserve">                -#:-----:::=@#*@+:::::-@**%+:::::---:*.              </tspan>
          <animate attributeName="opacity" values="0;0;1" keyTimes="0;0.001;1" dur="0.001s" begin="0.935s" fill="freeze"/>
        </text>
        <text x="254.0" y="333.79999999999995" fill="url(#asciiGrad)" filter="url(#softGlow)" opacity="0">
          <tspan xml:space="preserve">                 :------::::=**=:::::::=**=::::::---:.               </tspan>
          <animate attributeName="opacity" values="0;0;1" keyTimes="0;0.001;1" dur="0.001s" begin="0.99s" fill="freeze"/>
        </text>
        <text x="254.0" y="343.9" fill="url(#asciiGrad)" filter="url(#softGlow)" opacity="0">
          <tspan xml:space="preserve">                  :----:::::::::::::::::::::::::::--:                </tspan>
          <animate attributeName="opacity" values="0;0;1" keyTimes="0;0.001;1" dur="0.001s" begin="1.045s" fill="freeze"/>
        </text>
        <text x="254.0" y="354.0" fill="url(#asciiGrad)" filter="url(#softGlow)" opacity="0">
          <tspan xml:space="preserve">                  :----:::::::::::::::::::::::::::-::                </tspan>
          <animate attributeName="opacity" values="0;0;1" keyTimes="0;0.001;1" dur="0.001s" begin="1.1s" fill="freeze"/>
        </text>
        <text x="254.0" y="364.1" fill="url(#asciiGrad)" filter="url(#softGlow)" opacity="0">
          <tspan xml:space="preserve">                  :----::::::::-+****++-:::::::::::-:                </tspan>
          <animate attributeName="opacity" values="0;0;1" keyTimes="0;0.001;1" dur="0.001s" begin="1.155s" fill="freeze"/>
        </text>
        <text x="254.0" y="374.2" fill="url(#asciiGrad)" filter="url(#softGlow)" opacity="0">
          <tspan xml:space="preserve">                  .------:::::::::::::::::::::::----.                </tspan>
          <animate attributeName="opacity" values="0;0;1" keyTimes="0;0.001;1" dur="0.001s" begin="1.21s" fill="freeze"/>
        </text>
        <text x="254.0" y="384.29999999999995" fill="url(#asciiGrad)" filter="url(#softGlow)" opacity="0">
          <tspan xml:space="preserve">                    :--=--------------------------:                  </tspan>
          <animate attributeName="opacity" values="0;0;1" keyTimes="0;0.001;1" dur="0.001s" begin="1.265s" fill="freeze"/>
        </text>
        <text x="254.0" y="394.4" fill="url(#asciiGrad)" filter="url(#softGlow)" opacity="0">
          <tspan xml:space="preserve">                       .-=====================-.                     </tspan>
          <animate attributeName="opacity" values="0;0;1" keyTimes="0;0.001;1" dur="0.001s" begin="1.32s" fill="freeze"/>
        </text>
        <text x="254.0" y="404.5" fill="url(#asciiGrad)" filter="url(#softGlow)" opacity="0">
          <tspan xml:space="preserve">                  ......-===-------------------......                </tspan>
          <animate attributeName="opacity" values="0;0;1" keyTimes="0;0.001;1" dur="0.001s" begin="1.375s" fill="freeze"/>
        </text>
        <text x="254.0" y="414.59999999999997" fill="url(#asciiGrad)" filter="url(#softGlow)" opacity="0">
          <tspan xml:space="preserve">                .:::::::===------:::::::-------:::::::               </tspan>
          <animate attributeName="opacity" values="0;0;1" keyTimes="0;0.001;1" dur="0.001s" begin="1.43s" fill="freeze"/>
        </text>
        <text x="254.0" y="424.7" fill="url(#asciiGrad)" filter="url(#softGlow)" opacity="0">
          <tspan xml:space="preserve">            ..:::::::::--==-:::::::::::::::-=-:--::::::::..          </tspan>
          <animate attributeName="opacity" values="0;0;1" keyTimes="0;0.001;1" dur="0.001s" begin="1.485s" fill="freeze"/>
        </text>
        <text x="254.0" y="434.8" fill="url(#asciiGrad)" filter="url(#softGlow)" opacity="0">
          <tspan xml:space="preserve">         :---=+-::=*=--=++##*==---------=+*#*===--=+-::==---:.       </tspan>
          <animate attributeName="opacity" values="0;0;1" keyTimes="0;0.001;1" dur="0.001s" begin="1.54s" fill="freeze"/>
        </text>
        <text x="254.0" y="444.9" fill="url(#asciiGrad)" filter="url(#softGlow)" opacity="0">
          <tspan xml:space="preserve">       :-----==:---==+=--=-+#%%#########%#+===--=+=---:-=-:---:      </tspan>
          <animate attributeName="opacity" values="0;0;1" keyTimes="0;0.001;1" dur="0.001s" begin="1.595s" fill="freeze"/>
        </text>
        <text x="254.0" y="455.0" fill="url(#asciiGrad)" filter="url(#softGlow)" opacity="0">
          <tspan xml:space="preserve">      :--:::-+-:------=++=--=+*#%%%%%%#*+=--==+=------::=-:.:--:     </tspan>
          <animate attributeName="opacity" values="0;0;1" keyTimes="0;0.001;1" dur="0.001s" begin="1.65s" fill="freeze"/>
        </text>
        <text x="254.0" y="465.09999999999997" fill="url(#asciiGrad)" filter="url(#softGlow)" opacity="0">
          <tspan xml:space="preserve">     :=--:::-+-:----------=*=*+=+*%%#+==*=*==--::-----::==:..:--:    </tspan>
          <animate attributeName="opacity" values="0;0;1" keyTimes="0;0.001;1" dur="0.001s" begin="1.705s" fill="freeze"/>
        </text>
        <text x="254.0" y="475.2" fill="url(#asciiGrad)" filter="url(#softGlow)" opacity="0">
          <tspan xml:space="preserve">    :==-::--==:------------*=*===---====+=+=::---------:-=-:::---:   </tspan>
          <animate attributeName="opacity" values="0;0;1" keyTimes="0;0.001;1" dur="0.001s" begin="1.76s" fill="freeze"/>
        </text>
        <text x="254.0" y="485.3" fill="url(#asciiGrad)" filter="url(#softGlow)" opacity="0">
          <tspan xml:space="preserve">   -=------=+-:------------+=*-:::-----:=++=:--::------::+=--::---:  </tspan>
          <animate attributeName="opacity" values="0;0;1" keyTimes="0;0.001;1" dur="0.001s" begin="1.815s" fill="freeze"/>
        </text>
        <text x="254.0" y="495.4" fill="url(#asciiGrad)" filter="url(#softGlow)" opacity="0">
          <tspan xml:space="preserve">  -=------=++-:------------*=*-:-------:=+=+:--::------::=+=--::---: </tspan>
          <animate attributeName="opacity" values="0;0;1" keyTimes="0;0.001;1" dur="0.001s" begin="1.87s" fill="freeze"/>
        </text>
      </g>

      <rect x="44" y="94" width="420" height="3" fill="#06B6D4" opacity="0.18">
        <animate attributeName="y" values="94;554;94" dur="3.6s" repeatCount="indefinite"/>
      </rect>
    </g>

    </g>

    
      <g>
        <rect x="326" y="199.0" width="160" height="46" rx="12" fill="#0B1220" stroke="#1E3A8A" stroke-width="1.2"/>
        <text x="406.0" y="227.25" text-anchor="middle" font-family="'JetBrains Mono','Courier New',monospace" font-size="15" font-weight="800" fill="#F8FAFC">VOLODYMYR</text>
      </g>
      <g>
        <rect x="326" y="259.0" width="160" height="46" rx="12" fill="#0B1220" stroke="#155E75" stroke-width="1.2"/>
        <text x="406.0" y="286.9" text-anchor="middle" font-family="'JetBrains Mono','Courier New',monospace" font-size="14" font-weight="800" fill="#67E8F9">@kun3741</text>
      </g>
      <g>
        <rect x="326" y="319.0" width="160" height="46" rx="12" fill="#0B1220" stroke="#1E3A8A" stroke-width="1.2"/>
        <text x="406.0" y="346.55" text-anchor="middle" font-family="'JetBrains Mono','Courier New',monospace" font-size="13" font-weight="800" fill="#93C5FD">JS / PY / TS</text>
      </g>
      <g>
        <rect x="326" y="379.0" width="160" height="46" rx="12" fill="#0B1220" stroke="#1E293B" stroke-width="1.2"/>
        <text x="406.0" y="404.66" text-anchor="middle" font-family="'JetBrains Mono','Courier New',monospace" font-size="7.6" font-weight="800" fill="#94A3B8" letter-spacing="0.3">BOTS • WEBAPPS • AUTOMATION</text>
      </g>
      <g>
        <rect x="326" y="439.0" width="160" height="46" rx="12" fill="#0B1220" stroke="#065F46" stroke-width="1.2"/>
        <text x="406.0" y="466.55" text-anchor="middle" font-family="'JetBrains Mono','Courier New',monospace" font-size="13" font-weight="800" fill="#34D399">UKRAINE 🇺🇦</text>
      </g>

    <line x1="64" y1="596" x2="486" y2="596" stroke="#1E293B" stroke-width="1" stroke-dasharray="2 4"/>

    <text x="64" y="620" font-family="'JetBrains Mono','Courier New',monospace" font-size="13" font-weight="700" fill="#22D3EE">$ <tspan fill="#F8FAFC">mission --focus</tspan></text>
    <text x="64" y="650" font-family="'JetBrains Mono','Courier New',monospace" font-size="13" fill="#94A3B8"><tspan fill="#22D3EE">&gt; </tspan>Build useful things. Automate everything.</text>
    <text x="64" y="678" font-family="'JetBrains Mono','Courier New',monospace" font-size="13" fill="#94A3B8"><tspan fill="#22D3EE">&gt; </tspan>Ship value. Make impact.</text>
    <rect x="296" y="667" width="7" height="14" fill="#22D3EE"><animate attributeName="opacity" values="1;1;0;0;1" keyTimes="0;0.5;0.51;1;1" dur="1s" repeatCount="indefinite"/></rect>
  </g>


  <g>
    <rect x="530" y="40" width="610" height="860" rx="20" fill="#0B1220" fill-opacity="0.6" stroke="#1E293B" stroke-width="1"/>
    
    <circle cx="554" cy="70" r="5" fill="#FF5F56"/>
    <circle cx="572" cy="70" r="5" fill="#FFBD2E"/>
    <circle cx="590" cy="70" r="5" fill="#27C93F"/>
    <text x="835.0" y="74" text-anchor="middle" font-family="'JetBrains Mono','Courier New',monospace" font-size="12" fill="#94A3B8">volodymyr@kun3741 ~</text>
    <text x="1116" y="74" text-anchor="end" font-family="'JetBrains Mono','Courier New',monospace" font-size="14" font-weight="700" fill="#22D3EE">&gt;_</text>
    <line x1="554" y1="86" x2="1116" y2="86" stroke="#1E293B" stroke-width="1"/>

    
    <text x="554" y="134" font-family="'JetBrains Mono','Courier New',monospace" font-size="15" fill="#94A3B8">Hi 👋</text>
    <text x="554" y="186" font-family="'JetBrains Mono','Courier New',monospace" font-size="38" font-weight="800" fill="#F8FAFC">I'm Volodymyr</text>
    <text x="554" y="222" font-family="'JetBrains Mono','Courier New',monospace" font-size="21" fill="#94A3B8">aka <tspan fill="url(#accentGrad)" font-weight="800">kun3741</tspan></text>

    
    <rect x="554" y="246" width="292" height="42" rx="10" fill="#0B1220" fill-opacity="0.7" stroke="#1E293B" stroke-width="1"/>
    <rect x="554" y="246" width="292" height="42" rx="10" fill="none" stroke="url(#accentGrad)" stroke-width="1.2" opacity="0.6" filter="url(#softGlow)">
      <animate attributeName="opacity" values="0.35;0.75;0.35" dur="3s" repeatCount="indefinite"/>
    </rect>
    <text x="572" y="273" font-family="'JetBrains Mono','Courier New',monospace" font-size="15" font-weight="700" fill="url(#accentGrad)">&gt; Telegram Bot Engineer</text>
    <rect x="820" y="258" width="7" height="17" fill="#22D3EE">
      <animate attributeName="opacity" values="1;0" dur="0.6s" repeatCount="indefinite"/>
    </rect>

    <line x1="560" y1="316" x2="560" y2="501" stroke="#1E293B" stroke-width="1.4"/><circle cx="560" cy="316" r="5" fill="#030712" stroke="#22D3EE" stroke-width="2"/><text x="578" y="320.5" font-family="'JetBrains Mono','Courier New',monospace" font-size="13" font-weight="700" fill="#F8FAFC">JavaScript Developer</text><circle cx="560" cy="353" r="5" fill="#030712" stroke="#1E293B" stroke-width="2"/><text x="578" y="357.5" font-family="'JetBrains Mono','Courier New',monospace" font-size="13" font-weight="500" fill="#94A3B8">Python Developer</text><circle cx="560" cy="390" r="5" fill="#030712" stroke="#1E293B" stroke-width="2"/><text x="578" y="394.5" font-family="'JetBrains Mono','Courier New',monospace" font-size="13" font-weight="500" fill="#94A3B8">TypeScript Builder</text><circle cx="560" cy="427" r="5" fill="#030712" stroke="#1E293B" stroke-width="2"/><text x="578" y="431.5" font-family="'JetBrains Mono','Courier New',monospace" font-size="13" font-weight="500" fill="#94A3B8">WebApp Creator</text><circle cx="560" cy="464" r="5" fill="#030712" stroke="#1E293B" stroke-width="2"/><text x="578" y="468.5" font-family="'JetBrains Mono','Courier New',monospace" font-size="13" font-weight="500" fill="#94A3B8">Automation Developer</text><circle cx="560" cy="501" r="5" fill="#030712" stroke="#1E293B" stroke-width="2"/><text x="578" y="505.5" font-family="'JetBrains Mono','Courier New',monospace" font-size="13" font-weight="500" fill="#94A3B8">Indie Product Builder</text>
    <g transform="translate(813,308) scale(0.8)"><path d="M0,-8 C3.3,-8 5.8,-5.5 5.8,-2.3 C5.8,1.8 0,8 0,8 C0,8 -5.8,1.8 -5.8,-2.3 C-5.8,-5.5 -3.3,-8 0,-8 Z" fill="none" stroke="#2563EB" stroke-width="1.4" stroke-linejoin="round"/><circle cx="0" cy="-2.3" r="2.1" fill="#2563EB"/></g><text x="830" y="312" font-family="'JetBrains Mono','Courier New',monospace" font-size="10" font-weight="700" letter-spacing="0.5" fill="#94A3B8">LOCATION</text><text x="830" y="327" font-family="'JetBrains Mono','Courier New',monospace" font-size="11.5" font-weight="700" fill="#F8FAFC">Ukraine</text><g transform="translate(813,346.5) scale(0.8)"><circle cx="0" cy="0" r="9.5" fill="none" stroke="#2563EB" stroke-width="1.3"/><ellipse cx="0" cy="0" rx="4" ry="9.5" fill="none" stroke="#2563EB" stroke-width="1.1"/><line x1="-9.5" y1="0" x2="9.5" y2="0" stroke="#2563EB" stroke-width="1.1"/><path d="M-8,-4.7 H8 M-8,4.7 H8" fill="none" stroke="#2563EB" stroke-width="1.1"/></g><text x="830" y="350.5" font-family="'JetBrains Mono','Courier New',monospace" font-size="10" font-weight="700" letter-spacing="0.5" fill="#94A3B8">WEBSITE</text><text x="830" y="365.5" font-family="'JetBrains Mono','Courier New',monospace" font-size="11.5" font-weight="700" fill="#F8FAFC"><tspan fill="url(#accentGrad)">vaysed.me</tspan></text><g transform="translate(813,385.0) scale(0.8)"><circle cx="0" cy="0" r="9.5" fill="none" stroke="#06B6D4" stroke-width="1.3"/><path d="M3.6,-3.6 L1.2,1.2 L-3.6,3.6 L-1.2,-1.2 Z" fill="#06B6D4"/></g><text x="830" y="389.0" font-family="'JetBrains Mono','Courier New',monospace" font-size="10" font-weight="700" letter-spacing="0.5" fill="#94A3B8">MAIN FOCUS</text><text x="830" y="404.0" font-family="'JetBrains Mono','Courier New',monospace" font-size="11.5" font-weight="700" fill="#F8FAFC">Telegram bots, WebApps,</text><text x="830" y="417.5" font-family="'JetBrains Mono','Courier New',monospace" font-size="11.5" font-weight="700" fill="#F8FAFC">automation, landing pages</text><text x="830" y="431.0" font-family="'JetBrains Mono','Courier New',monospace" font-size="11.5" font-weight="700" fill="#F8FAFC">tools and products</text><g transform="translate(813,450.5) scale(0.8)"><path d="M0,-7 L8,-2.3 L0,2.4 L-8,-2.3 Z" fill="none" stroke="#8B5CF6" stroke-width="1.3" stroke-linejoin="round"/><path d="M-8,1.4 L0,6.1 L8,1.4" fill="none" stroke="#8B5CF6" stroke-width="1.3" stroke-linejoin="round"/></g><text x="830" y="454.5" font-family="'JetBrains Mono','Courier New',monospace" font-size="10" font-weight="700" letter-spacing="0.5" fill="#94A3B8">CURRENT DIRECTION</text><text x="830" y="469.5" font-family="'JetBrains Mono','Courier New',monospace" font-size="11.5" font-weight="700" fill="#F8FAFC">practical developer tools</text><text x="830" y="483.0" font-family="'JetBrains Mono','Courier New',monospace" font-size="11.5" font-weight="700" fill="#F8FAFC">and products</text><g transform="translate(813,502.5) scale(0.8)"><path d="M-3,-6 L-9,0 L-3,6" fill="none" stroke="#8B5CF6" stroke-width="1.6" stroke-linecap="round" stroke-linejoin="round"/><path d="M3,-6 L9,0 L3,6" fill="none" stroke="#8B5CF6" stroke-width="1.6" stroke-linecap="round" stroke-linejoin="round"/></g><text x="830" y="506.5" font-family="'JetBrains Mono','Courier New',monospace" font-size="10" font-weight="700" letter-spacing="0.5" fill="#94A3B8">STACK</text><text x="830" y="521.5" font-family="'JetBrains Mono','Courier New',monospace" font-size="11.5" font-weight="700" fill="#F8FAFC"><tspan fill="#CA8A04">JavaScript</tspan> / <tspan fill="#3776AB">Python</tspan> / <tspan fill="#3178C6">TypeScript</tspan></text><g transform="translate(813,541.0) scale(0.8)"><path d="M0,-6 L9,-1.6 L0,3 L-9,-1.6 Z" fill="none" stroke="#10B981" stroke-width="1.3" stroke-linejoin="round"/><path d="M-4.6,0.6 V4.6 C-4.6,6.1 -1.8,7.5 0,7.5 C1.8,7.5 4.6,6.1 4.6,4.6 V0.6" fill="none" stroke="#10B981" stroke-width="1.2"/><line x1="8" y1="-1" x2="8" y2="3.6" stroke="#10B981" stroke-width="1.2"/></g><text x="830" y="545.0" font-family="'JetBrains Mono','Courier New',monospace" font-size="10" font-weight="700" letter-spacing="0.5" fill="#94A3B8">EDUCATION</text><text x="830" y="560.0" font-family="'JetBrains Mono','Courier New',monospace" font-size="11.5" font-weight="700" fill="#F8FAFC">Software Engineering Student</text>
    <line x1="554" y1="587.5" x2="1116" y2="587.5" stroke="#1E293B" stroke-width="1"/>
    <text x="554" y="605.5" font-family="'JetBrains Mono','Courier New',monospace" font-size="11" letter-spacing="2" fill="#94A3B8">SKILLS &amp; TOOLS</text>
    
      <g transform="translate(554.0,615.5)">
        <rect x="0" y="0" width="106.0" height="46" rx="11" fill="#0B1220" fill-opacity="0.6" stroke="#1E293B" stroke-width="1"/>
        <rect x="0" y="0" width="106.0" height="46" rx="11" fill="none" stroke="url(#accentGrad)" stroke-width="0.9" opacity="0.35"/>
        <g transform="translate(53.0,16) scale(0.78)"><rect x="-10" y="-10" width="20" height="20" rx="5" fill="#F7DF1E"/><text x="0" y="4.5" text-anchor="middle" font-family="'Inter','Segoe UI',sans-serif" font-size="8.5" font-weight="800" fill="#111827">JS</text></g>
        <text x="53.0" y="37" text-anchor="middle" font-family="'Inter','Segoe UI',sans-serif" font-size="9.6" font-weight="700" fill="#F8FAFC">JavaScript</text>
      </g>
      <g transform="translate(668.0,615.5)">
        <rect x="0" y="0" width="106.0" height="46" rx="11" fill="#0B1220" fill-opacity="0.6" stroke="#1E293B" stroke-width="1"/>
        <rect x="0" y="0" width="106.0" height="46" rx="11" fill="none" stroke="url(#accentGrad)" stroke-width="0.9" opacity="0.35"/>
        <g transform="translate(53.0,16) scale(0.78)"><rect x="-10" y="-10" width="20" height="20" rx="5" fill="#0B1220"/><path d="M-4.5,-7 h6 a3,3 0 0 1 3,3 v2.3 h-6.7 a2.8,2.8 0 0 0 -2.8,2.8 v2.4 h-2.6 a2.9,2.9 0 0 1 -2.9,-2.9 v-2.6 a5,5 0 0 1 5,-5 z" fill="#3776AB"/><path d="M4.5,7 h-6 a3,3 0 0 1 -3,-3 v-2.3 h6.7 a2.8,2.8 0 0 0 2.8,-2.8 v-2.4 h2.6 a2.9,2.9 0 0 1 2.9,2.9 v2.6 a5,5 0 0 1 -5,5 z" fill="#FFD43B"/><circle cx="-2.3" cy="-5.3" r="0.9" fill="#0B1220"/><circle cx="2.3" cy="5.3" r="0.9" fill="#0B1220"/></g>
        <text x="53.0" y="37" text-anchor="middle" font-family="'Inter','Segoe UI',sans-serif" font-size="9.6" font-weight="700" fill="#F8FAFC">Python</text>
      </g>
      <g transform="translate(782.0,615.5)">
        <rect x="0" y="0" width="106.0" height="46" rx="11" fill="#0B1220" fill-opacity="0.6" stroke="#1E293B" stroke-width="1"/>
        <rect x="0" y="0" width="106.0" height="46" rx="11" fill="none" stroke="url(#accentGrad)" stroke-width="0.9" opacity="0.35"/>
        <g transform="translate(53.0,16) scale(0.78)"><rect x="-10" y="-10" width="20" height="20" rx="5" fill="#3178C6"/><text x="0" y="4.5" text-anchor="middle" font-family="'Inter','Segoe UI',sans-serif" font-size="8.5" font-weight="800" fill="#FFFFFF">TS</text></g>
        <text x="53.0" y="37" text-anchor="middle" font-family="'Inter','Segoe UI',sans-serif" font-size="9.6" font-weight="700" fill="#F8FAFC">TypeScript</text>
      </g>
      <g transform="translate(896.0,615.5)">
        <rect x="0" y="0" width="106.0" height="46" rx="11" fill="#0B1220" fill-opacity="0.6" stroke="#1E293B" stroke-width="1"/>
        <rect x="0" y="0" width="106.0" height="46" rx="11" fill="none" stroke="url(#accentGrad)" stroke-width="0.9" opacity="0.35"/>
        <g transform="translate(53.0,16) scale(0.78)"><path d="M0,-9.5 L8.2,-4.75 V4.75 L0,9.5 L-8.2,4.75 V-4.75 Z" fill="#3C873A"/><text x="0" y="3.5" text-anchor="middle" font-family="'Inter','Segoe UI',sans-serif" font-size="8" font-weight="800" fill="#FFFFFF">N</text></g>
        <text x="53.0" y="37" text-anchor="middle" font-family="'Inter','Segoe UI',sans-serif" font-size="9.6" font-weight="700" fill="#F8FAFC">Node.js</text>
      </g>
      <g transform="translate(1010.0,615.5)">
        <rect x="0" y="0" width="106.0" height="46" rx="11" fill="#0B1220" fill-opacity="0.6" stroke="#1E293B" stroke-width="1"/>
        <rect x="0" y="0" width="106.0" height="46" rx="11" fill="none" stroke="url(#accentGrad)" stroke-width="0.9" opacity="0.35"/>
        <g transform="translate(53.0,16) scale(0.78)"><rect x="-10" y="-10" width="20" height="20" rx="5" fill="#374151"/><text x="0" y="4.2" text-anchor="middle" font-family="'Inter','Segoe UI',sans-serif" font-size="8" font-weight="700" font-style="italic" fill="#FFFFFF">Ex</text></g>
        <text x="53.0" y="37" text-anchor="middle" font-family="'Inter','Segoe UI',sans-serif" font-size="9.6" font-weight="700" fill="#F8FAFC">Express</text>
      </g>
      <g transform="translate(554.0,669.5)">
        <rect x="0" y="0" width="106.0" height="46" rx="11" fill="#0B1220" fill-opacity="0.6" stroke="#1E293B" stroke-width="1"/>
        <rect x="0" y="0" width="106.0" height="46" rx="11" fill="none" stroke="url(#accentGrad)" stroke-width="0.9" opacity="0.35"/>
        <g transform="translate(53.0,16) scale(0.78)"><circle cx="0" cy="0" r="10" fill="#26A5E4"/><path d="M-5.3,0.3 L5.8,-4.2 C6.3,-4.4 6.8,-4 6.6,-3.4 L4.7,4.6 C4.5,5.4 3.9,5.6 3.3,5.2 L0.4,3 L-1,4.4 C-1.2,4.6 -1.4,4.7 -1.7,4.5 L-1.4,1.7 L4.2,-3.2 C4.4,-3.4 4.2,-3.5 3.9,-3.3 L-2.9,0.9 L-5.4,0.1 C-6,-0.1 -6,-0.5 -5.3,-0.3 Z" fill="#FFFFFF"/></g>
        <text x="53.0" y="37" text-anchor="middle" font-family="'Inter','Segoe UI',sans-serif" font-size="9.6" font-weight="700" fill="#F8FAFC">Telegram Bots</text>
      </g>
      <g transform="translate(668.0,669.5)">
        <rect x="0" y="0" width="106.0" height="46" rx="11" fill="#0B1220" fill-opacity="0.6" stroke="#1E293B" stroke-width="1"/>
        <rect x="0" y="0" width="106.0" height="46" rx="11" fill="none" stroke="url(#accentGrad)" stroke-width="0.9" opacity="0.35"/>
        <g transform="translate(53.0,16) scale(0.78)"><rect x="-10" y="-10" width="20" height="20" rx="5" fill="none" stroke="#8B5CF6" stroke-width="1.4"/><line x1="-10" y1="-5" x2="10" y2="-5" stroke="#8B5CF6" stroke-width="1.2"/><circle cx="-7" cy="-7.5" r="0.8" fill="#8B5CF6"/><circle cx="-4.4" cy="-7.5" r="0.8" fill="#8B5CF6"/></g>
        <text x="53.0" y="37" text-anchor="middle" font-family="'Inter','Segoe UI',sans-serif" font-size="9.6" font-weight="700" fill="#F8FAFC">WebApps</text>
      </g>
      <g transform="translate(782.0,669.5)">
        <rect x="0" y="0" width="106.0" height="46" rx="11" fill="#0B1220" fill-opacity="0.6" stroke="#1E293B" stroke-width="1"/>
        <rect x="0" y="0" width="106.0" height="46" rx="11" fill="none" stroke="url(#accentGrad)" stroke-width="0.9" opacity="0.35"/>
        <g transform="translate(53.0,16) scale(0.78)"><rect x="-10" y="-10" width="20" height="20" rx="5" fill="#0B1220"/><path d="M0,-7 C4,-4 5,-0.5 3.2,4 C2.5,5.7 1.1,7 0,8.5 C-1.1,7 -2.5,5.7 -3.2,4 C-5,-0.5 -4,-4 0,-7 Z" fill="#47A248"/><line x1="0" y1="8.5" x2="0" y2="10.4" stroke="#47A248" stroke-width="1"/></g>
        <text x="53.0" y="37" text-anchor="middle" font-family="'Inter','Segoe UI',sans-serif" font-size="9.6" font-weight="700" fill="#F8FAFC">MongoDB</text>
      </g>
      <g transform="translate(896.0,669.5)">
        <rect x="0" y="0" width="106.0" height="46" rx="11" fill="#0B1220" fill-opacity="0.6" stroke="#1E293B" stroke-width="1"/>
        <rect x="0" y="0" width="106.0" height="46" rx="11" fill="none" stroke="url(#accentGrad)" stroke-width="0.9" opacity="0.35"/>
        <g transform="translate(53.0,16) scale(0.78)"><rect x="-10" y="-10" width="20" height="20" rx="5" fill="#E34F26"/><text x="0" y="4.2" text-anchor="middle" font-family="'Inter','Segoe UI',sans-serif" font-size="7.5" font-weight="800" fill="#FFFFFF">5</text></g>
        <text x="53.0" y="37" text-anchor="middle" font-family="'Inter','Segoe UI',sans-serif" font-size="9.6" font-weight="700" fill="#F8FAFC">HTML</text>
      </g>
      <g transform="translate(1010.0,669.5)">
        <rect x="0" y="0" width="106.0" height="46" rx="11" fill="#0B1220" fill-opacity="0.6" stroke="#1E293B" stroke-width="1"/>
        <rect x="0" y="0" width="106.0" height="46" rx="11" fill="none" stroke="url(#accentGrad)" stroke-width="0.9" opacity="0.35"/>
        <g transform="translate(53.0,16) scale(0.78)"><rect x="-10" y="-10" width="20" height="20" rx="5" fill="#F05033"/><circle cx="-3" cy="-3" r="1.6" fill="#FFFFFF"/><circle cx="3" cy="3" r="1.6" fill="#FFFFFF"/><circle cx="3" cy="-3" r="1.6" fill="#FFFFFF"/><path d="M-3,-1.4 V1.4 A1.6,1.6 0 0 0 -1.4,3 H1.4 M3,-1.4 V-1.4" fill="none" stroke="#FFFFFF" stroke-width="1.1"/></g>
        <text x="53.0" y="37" text-anchor="middle" font-family="'Inter','Segoe UI',sans-serif" font-size="9.6" font-weight="700" fill="#F8FAFC">Git</text>
      </g>
      <g transform="translate(554.0,723.5)">
        <rect x="0" y="0" width="106.0" height="46" rx="11" fill="#0B1220" fill-opacity="0.6" stroke="#1E293B" stroke-width="1"/>
        <rect x="0" y="0" width="106.0" height="46" rx="11" fill="none" stroke="url(#accentGrad)" stroke-width="0.9" opacity="0.35"/>
        <g transform="translate(53.0,16) scale(0.78)"><line x1="6.50" y1="0.00" x2="9.20" y2="0.00" stroke="#0EA5E9" stroke-width="2" stroke-linecap="round"/><line x1="4.60" y1="4.60" x2="6.51" y2="6.51" stroke="#0EA5E9" stroke-width="2" stroke-linecap="round"/><line x1="0.00" y1="6.50" x2="0.00" y2="9.20" stroke="#0EA5E9" stroke-width="2" stroke-linecap="round"/><line x1="-4.60" y1="4.60" x2="-6.51" y2="6.51" stroke="#0EA5E9" stroke-width="2" stroke-linecap="round"/><line x1="-6.50" y1="0.00" x2="-9.20" y2="0.00" stroke="#0EA5E9" stroke-width="2" stroke-linecap="round"/><line x1="-4.60" y1="-4.60" x2="-6.51" y2="-6.51" stroke="#0EA5E9" stroke-width="2" stroke-linecap="round"/><line x1="-0.00" y1="-6.50" x2="-0.00" y2="-9.20" stroke="#0EA5E9" stroke-width="2" stroke-linecap="round"/><line x1="4.60" y1="-4.60" x2="6.51" y2="-6.51" stroke="#0EA5E9" stroke-width="2" stroke-linecap="round"/><circle cx="0" cy="0" r="5" fill="none" stroke="#0EA5E9" stroke-width="1.6"/><circle cx="0" cy="0" r="1.6" fill="#0EA5E9"/></g>
        <text x="53.0" y="37" text-anchor="middle" font-family="'Inter','Segoe UI',sans-serif" font-size="9.6" font-weight="700" fill="#F8FAFC">Automation</text>
      </g>
      <g transform="translate(668.0,723.5)">
        <rect x="0" y="0" width="106.0" height="46" rx="11" fill="#0B1220" fill-opacity="0.6" stroke="#1E293B" stroke-width="1"/>
        <rect x="0" y="0" width="106.0" height="46" rx="11" fill="none" stroke="url(#accentGrad)" stroke-width="0.9" opacity="0.35"/>
        <g transform="translate(53.0,16) scale(0.78)"><path d="M-3,-6 L-9,0 L-3,6" fill="none" stroke="#8B5CF6" stroke-width="1.6" stroke-linecap="round" stroke-linejoin="round"/><path d="M3,-6 L9,0 L3,6" fill="none" stroke="#8B5CF6" stroke-width="1.6" stroke-linecap="round" stroke-linejoin="round"/></g>
        <text x="53.0" y="37" text-anchor="middle" font-family="'Inter','Segoe UI',sans-serif" font-size="9.6" font-weight="700" fill="#F8FAFC">SVG UI</text>
      </g>
      <g transform="translate(782.0,723.5)">
        <rect x="0" y="0" width="106.0" height="46" rx="11" fill="#0B1220" fill-opacity="0.6" stroke="#1E293B" stroke-width="1"/>
        <rect x="0" y="0" width="106.0" height="46" rx="11" fill="none" stroke="url(#accentGrad)" stroke-width="0.9" opacity="0.35"/>
        <g transform="translate(53.0,16) scale(0.78)"><circle cx="0" cy="0" r="9.5" fill="none" stroke="#F59E0B" stroke-width="1.3"/><path d="M-4.5,3 V-3 h2.4 a1.9,1.9 0 0 1 0,3.8 h-2.4" fill="none" stroke="#F59E0B" stroke-width="1.3"/><circle cx="4.2" cy="0" r="2.6" fill="none" stroke="#F59E0B" stroke-width="1.3"/></g>
        <text x="53.0" y="37" text-anchor="middle" font-family="'Inter','Segoe UI',sans-serif" font-size="9.6" font-weight="700" fill="#F8FAFC">REST API</text>
      </g>
      <g transform="translate(896.0,723.5)">
        <rect x="0" y="0" width="106.0" height="46" rx="11" fill="#0B1220" fill-opacity="0.6" stroke="#1E293B" stroke-width="1"/>
        <rect x="0" y="0" width="106.0" height="46" rx="11" fill="none" stroke="url(#accentGrad)" stroke-width="0.9" opacity="0.35"/>
        <g transform="translate(53.0,16) scale(0.78)"><rect x="-9" y="-6.5" width="18" height="12" rx="1.6" fill="none" stroke="#10B981" stroke-width="1.4"/><line x1="-3.5" y1="8" x2="3.5" y2="8" stroke="#10B981" stroke-width="1.4"/><line x1="0" y1="5.5" x2="0" y2="8" stroke="#10B981" stroke-width="1.4"/></g>
        <text x="53.0" y="37" text-anchor="middle" font-family="'Inter','Segoe UI',sans-serif" font-size="9.6" font-weight="700" fill="#F8FAFC">Landing Pages</text>
      </g>
      <g transform="translate(1010.0,723.5)">
        <rect x="0" y="0" width="106.0" height="46" rx="11" fill="#0B1220" fill-opacity="0.6" stroke="#1E293B" stroke-width="1"/>
        <rect x="0" y="0" width="106.0" height="46" rx="11" fill="none" stroke="url(#accentGrad)" stroke-width="0.9" opacity="0.35"/>
        <g transform="translate(53.0,16) scale(0.78)"><path d="M0,-8.5 L8,-4.2 V4.2 L0,8.5 L-8,4.2 V-4.2 Z" fill="none" stroke="#EC4899" stroke-width="1.4" stroke-linejoin="round"/><path d="M0,-8.5 V0 M0,0 L8,-4.2 M0,0 L-8,-4.2" fill="none" stroke="#EC4899" stroke-width="1.1"/></g>
        <text x="53.0" y="37" text-anchor="middle" font-family="'Inter','Segoe UI',sans-serif" font-size="9.6" font-weight="700" fill="#F8FAFC">Product Dev</text>
      </g>
    <line x1="554" y1="783.5" x2="1116" y2="783.5" stroke="#1E293B" stroke-width="1"/>
    <text x="554" y="801.5" font-family="'JetBrains Mono','Courier New',monospace" font-size="11" letter-spacing="2" fill="#94A3B8">CONNECT</text>
    
      <g transform="translate(554.0,809.5)">
        <rect x="0" y="0" width="133.0" height="44" rx="11" fill="#0B1220" fill-opacity="0.6" stroke="#1E293B" stroke-width="1"/>
        <g transform="translate(25,22.0) scale(0.78)"><circle cx="0" cy="0" r="10" fill="#F8FAFC"/><path d="M0,-6.3 C-3.5,-6.3 -6.3,-3.5 -6.3,0 C-6.3,2.8 -4.5,5.1 -2,6 C-1.7,6.05 -1.6,5.9 -1.6,5.75 C-1.6,5.6 -1.6,5.2 -1.6,4.7 C-3.35,5.1 -3.7,3.9 -3.7,3.9 C-4,3.1 -4.4,2.9 -4.4,2.9 C-5,2.5 -4.35,2.5 -4.35,2.5 C-3.7,2.55 -3.35,3.2 -3.35,3.2 C-2.8,4.1 -1.95,3.85 -1.6,3.7 C-1.55,3.3 -1.4,3.05 -1.2,2.9 C-2.6,2.75 -4.05,2.2 -4.05,-0.15 C-4.05,-0.85 -3.8,-1.4 -3.4,-1.85 C-3.45,-2 -3.7,-2.65 -3.35,-3.5 C-3.35,-3.5 -2.8,-3.7 -1.6,-2.9 C-1.1,-3.05 -0.55,-3.1 0,-3.1 C0.55,-3.1 1.1,-3.05 1.6,-2.9 C2.8,-3.7 3.35,-3.5 3.35,-3.5 C3.7,-2.65 3.45,-2 3.4,-1.85 C3.8,-1.4 4.05,-0.85 4.05,-0.15 C4.05,2.2 2.6,2.75 1.2,2.9 C1.45,3.1 1.65,3.5 1.65,4.1 C1.65,4.95 1.6,5.55 1.6,5.75 C1.6,5.9 1.7,6.1 2,6 C4.5,5.1 6.3,2.8 6.3,0 C6.3,-3.5 3.5,-6.3 0,-6.3 Z" fill="#0B1220"/></g>
        <text x="42" y="19.0" font-family="'Inter','Segoe UI',sans-serif" font-size="10.8" font-weight="700" fill="#F8FAFC">GitHub</text>
        <text x="42" y="33.0" font-family="'Inter','Segoe UI',sans-serif" font-size="9.8" fill="url(#accentGrad)">/kun3741</text>
      </g>
      <g transform="translate(697.0,809.5)">
        <rect x="0" y="0" width="133.0" height="44" rx="11" fill="#0B1220" fill-opacity="0.6" stroke="#1E293B" stroke-width="1"/>
        <g transform="translate(25,22.0) scale(0.78)"><rect x="-10" y="-10" width="20" height="20" rx="5" fill="#F8FAFC"/><line x1="-4.5" y1="-4.5" x2="4.5" y2="4.5" stroke="#0B1220" stroke-width="1.8" stroke-linecap="round"/><line x1="4.5" y1="-4.5" x2="-4.5" y2="4.5" stroke="#0B1220" stroke-width="1.8" stroke-linecap="round"/></g>
        <text x="42" y="19.0" font-family="'Inter','Segoe UI',sans-serif" font-size="10.8" font-weight="700" fill="#F8FAFC">X (@kun3741)</text>
        <text x="42" y="33.0" font-family="'Inter','Segoe UI',sans-serif" font-size="9.8" fill="url(#accentGrad)">Follow me</text>
      </g>
      <g transform="translate(840.0,809.5)">
        <rect x="0" y="0" width="133.0" height="44" rx="11" fill="#0B1220" fill-opacity="0.6" stroke="#1E293B" stroke-width="1"/>
        <g transform="translate(25,22.0) scale(0.78)"><circle cx="0" cy="0" r="10" fill="#26A5E4"/><path d="M-5.3,0.3 L5.8,-4.2 C6.3,-4.4 6.8,-4 6.6,-3.4 L4.7,4.6 C4.5,5.4 3.9,5.6 3.3,5.2 L0.4,3 L-1,4.4 C-1.2,4.6 -1.4,4.7 -1.7,4.5 L-1.4,1.7 L4.2,-3.2 C4.4,-3.4 4.2,-3.5 3.9,-3.3 L-2.9,0.9 L-5.4,0.1 C-6,-0.1 -6,-0.5 -5.3,-0.3 Z" fill="#FFFFFF"/></g>
        <text x="42" y="19.0" font-family="'Inter','Segoe UI',sans-serif" font-size="10.8" font-weight="700" fill="#F8FAFC">Telegram</text>
        <text x="42" y="33.0" font-family="'Inter','Segoe UI',sans-serif" font-size="9.8" fill="url(#accentGrad)">@kun3741</text>
      </g>
      <g transform="translate(983.0,809.5)">
        <rect x="0" y="0" width="133.0" height="44" rx="11" fill="#0B1220" fill-opacity="0.6" stroke="#1E293B" stroke-width="1"/>
        <g transform="translate(25,22.0) scale(0.78)"><circle cx="0" cy="0" r="9.5" fill="none" stroke="#2563EB" stroke-width="1.3"/><ellipse cx="0" cy="0" rx="4" ry="9.5" fill="none" stroke="#2563EB" stroke-width="1.1"/><line x1="-9.5" y1="0" x2="9.5" y2="0" stroke="#2563EB" stroke-width="1.1"/><path d="M-8,-4.7 H8 M-8,4.7 H8" fill="none" stroke="#2563EB" stroke-width="1.1"/></g>
        <text x="42" y="19.0" font-family="'Inter','Segoe UI',sans-serif" font-size="10.8" font-weight="700" fill="#F8FAFC">Website</text>
        <text x="42" y="33.0" font-family="'Inter','Segoe UI',sans-serif" font-size="9.8" fill="url(#accentGrad)">vaysed.me</text>
      </g>
  </g>


  <text x="590.0" y="946" text-anchor="middle" font-family="'JetBrains Mono','Courier New',monospace" font-size="13" font-weight="700" letter-spacing="1.5"><tspan fill="#94A3B8"> &lt;/&gt; </tspan><tspan fill="#2563EB"> CODE. </tspan><tspan fill="#06B6D4"> AUTOMATE. </tspan><tspan fill="#10B981"> BUILD. </tspan><tspan fill="#8B5CF6"> IMPACT. </tspan><tspan fill="#94A3B8"> &lt;/&gt; </tspan></text>

</svg>